<!--?xml version="1.0" encoding="utf-8"?-->
<!-- Svg Vector Icons : http://www.onlinewebfonts.com/icon -->

<svg version="1.1" xmlns="http://www.w3.org/2000/svg" xmlns:xlink="http://www.w3.org/1999/xlink" x="0px" y="0px" viewBox="0 0 256 256" enable-background="new 0 0 256 256" xml:space="preserve">
<metadata> Svg Vector Icons : http://www.onlinewebfonts.com/icon </metadata>
<g><g><g><path fill="#ffffff" data-title="Layer 0" xs="0" d="M41.5,31.9C15.3,53.6,10.3,58,10.1,59.3c-0.2,1.5,2.2,3.5,30.6,27.1c17,14,31.4,25.8,32.1,26.2c1.1,0.6,1.5,0.5,2.4-0.5c0.6-0.6,1.1-1.3,1.1-1.6c0-0.3-9.9-27.5-11.6-32.1c-0.4-0.9,2.3-1,50.4-1c56.3,0,55.4-0.1,64.1,3.7c7,3,10.4,5.3,16.1,10.8c5.8,5.7,9.6,11.3,12.5,18.1c3.5,8.2,4.3,12.4,4.5,25.2l0.3,11.5l16,13.4c8.8,7.4,16.3,13.7,16.7,14c0.6,0.4,0.7-3.9,0.5-25.5c-0.3-29.5-0.7-33.1-4.9-45.7c-4.9-14.9-11.7-25.8-22.4-36.5c-12.1-12.1-24.5-19-41.2-23.2c-4.7-1.1-6.2-1.2-58.8-1.4c-29.7-0.1-54.1-0.3-54.1-0.4c0-0.1,2.7-7.5,6-16.6c5-13.7,5.9-16.6,5.4-17.6C75.5,6.5,74.8,6,74,6C73.2,6.1,62,14.9,41.5,31.9z"/><path fill="#ffffff" data-title="Layer 1" xs="1" d="M10,105.5c0,17.6,0.2,25.2,0.9,30c5.2,39.4,32.5,70,69.3,77.7c6.1,1.2,6.6,1.2,58.7,1.5l52.5,0.2l-5.9,15.9c-3.2,8.8-5.8,16.4-5.8,16.9c0,1.2,1.1,2.3,2.6,2.3c1.5-0.1,62.8-50.7,63.5-52.5c0.4-1,0.3-1.6-0.2-2.3c-2-2.4-62.5-51.9-63.4-51.9c-1.3,0-2.4,1.1-2.4,2.3c0,0.6,2.6,7.9,5.7,16.5c3.1,8.5,5.7,15.8,5.7,16.2c0,0.7-8.1,0.7-51.5,0.6c-51.1-0.2-51.6-0.2-56.1-1.5c-16.4-4.5-29.9-16.8-36.1-32.9c-2.9-7.5-3.9-13.4-3.9-24.6c0-5.4-0.2-10.2-0.5-10.5C42.5,108.7,10.7,82,10.3,82C10.2,82,10,92.7,10,105.5z"/></g></g></g>
</svg>